# xmcd
#
# Track frame offsets:
#	150
#	13343
#	33658
#	47129
#	64147
#	77669
#	89649
#	103595
#	117741
#	132624
#	151746
#	162929
#	178711
#	195184
#	214719
#	228293
#	252110
#	264310
#	281762
#	297534
#	311281
#	327860
#
# Disc length: 4584 seconds
#
# Revision: 0
# Processed by: cddbd v1.5.2PL0 Copyright (c) Steve Scherf et al.
# Submitted via: EZCDAudioConverter 2.4.0.1
#
DISCID=3f11e616
DTITLE=Vários - Explosão Sertaneja 04
DYEAR=2003
DGENRE=Sertanejo
TTITLE0=Bruno and Marrone - Agarrada Em Mim (Acústico)
TTITLE1=Marlon and Maicon - Por te amar assim
TTITLE2=Daniel Feat. José Camilo - Meu Reino Encantado
TTITLE3=Daniel Feat. José Camilo  - Mundo Velho
TTITLE4=Daniel Feat. Gino and Geno, Borghettinho - Paixão Dupla
TTITLE5=Daniel Feat. João Mulato and Douradinho - Moradia
TTITLE6=Daniel Feat. José Camillo, Rolando Boldrin - Cobra Venenosa
TTITLE7=Daniel Feat. José Camillo - Cabelo Loiro
TTITLE8=Sérgio Reis - Panela Velha
TTITLE9=Sula Miranda - Caminhoneiro
TTITLE10=Sula Miranda - A Caroneira
TTITLE11=Sula Miranda - Fogueira
TTITLE12=Sula Miranda - Coisinha Linda
TTITLE13=Sula Miranda - Rumo Certo
TTITLE14=Sula Miranda - Filme Triste
TTITLE15=Sula Miranda - Lobo Amante
TTITLE16=Sula Miranda - Seu Olhar
TTITLE17=Sula Miranda - Estrada Afora
TTITLE18=Sula Miranda - Anúncio de Jornal
TTITLE19=Sula Miranda - Com o Pé na Estrada
TTITLE20=Sula Miranda - Me Liga, Me Grita, Me Chama
TTITLE21=Sula Miranda - Caso de Polícia
EXTD=
EXTT0=
EXTT1=
EXTT2=
EXTT3=
EXTT4=
EXTT5=
EXTT6=
EXTT7=
EXTT8=
EXTT9=
EXTT10=
EXTT11=
EXTT12=
EXTT13=
EXTT14=
EXTT15=
EXTT16=
EXTT17=
EXTT18=
EXTT19=
EXTT20=
EXTT21=
PLAYORDER=
